<?xml version="1.0" encoding="utf-8"?>
<!-- Generator: Adobe Illustrator 25.0.0, SVG Export Plug-In . SVG Version: 6.00 Build 0)  -->
<svg version="1.1" id="Layer_2_1_" xmlns="http://www.w3.org/2000/svg" xmlns:xlink="http://www.w3.org/1999/xlink" x="0px" y="0px"
	 viewBox="0 0 758.5 921.5" style="enable-background:new 0 0 758.5 921.5;" xml:space="preserve">
<style type="text/css">
	.st0{fill:#FFFFFF;}
	.st1{fill:#001425;}
	.st2{fill:#96D8D8;}
	.st3{fill:#639FB6;}
	.st4{fill:#C8102E;}
</style>
<path class="st0" d="M657.6,313c18.7-13.1,35.7-29.3,50.5-48.3c15.3-19.6,28.4-42.2,39-67.3l11.4-26.9l-29.2-2.2
	C578.2,157,470,102.1,424.6,13.8L417.5,0l-15.3,2.7c-97.8,17.4-188.6,57.9-255.6,113.8c-33.8,28.2-60.4,59.4-78.9,92.5
	C48,244.3,38,280.7,38,317.2c0,36.9,8.2,71.6,24.5,103.4c13.9,27.1,34,52.6,59.7,75.9c33.2,30,72.1,53.2,106.9,71.6
	c-21,1-41.4,4.7-61,10.9c-23,7.3-44.7,18.1-64.6,32.2C64.4,638.8,32.6,679,11.6,727.6L0,754.3l29,2.5c170,14.9,267,61.6,314.6,151.4
	l7,13.3l14.9-2.4c46.7-7.6,92.1-20.5,135-38.6c43.5-18.3,82.4-41.1,115.7-67.6c35.2-28.1,62.8-59.4,82.2-93.1
	c21-36.7,31.6-75.4,31.6-115.1c0-33.5-6.4-65-19.2-93.6c-11-24.7-27.1-48.1-47.8-69.3c-37.2-38.1-83.4-64.1-120.5-84.9
	c-3.4-1.9-6.6-3.7-9.8-5.5c0.9,0,1.8,0,2.7,0C579.4,351.4,621.7,338.1,657.6,313z M709,604.7c0,149-166.7,264.5-346.8,293.7
	c-52.7-99.5-160.9-147.5-331.3-162.5c39.3-90.9,116.4-147.2,210.9-147.2c31.1,0,64.2,6.1,98.4,19.1C311.8,566.1,59,514.1,59,317.2
	c0-134.7,154.1-259.4,347-293.8c49.6,96.7,164.7,154.1,321.8,165.7c-40.5,96-114.6,141.3-192.3,141.3c-24.4,0-49.1-4.5-73.3-13.2
	C468.5,375,709,406.3,709,604.7z"/>
<path class="st1" d="M462.1,317.2c101.2,36.7,212.5-2,265.7-128.1c-157.1-11.7-272.2-69.1-321.8-165.7C213.1,57.8,59,182.5,59,317.2
	c0,196.9,252.9,248.9,281.1,290.7c-138-52.4-257,7.2-309.3,128.1c170.4,14.9,278.6,63,331.3,162.5C542.3,869.3,709,753.7,709,604.7
	C709,406.3,468.5,375,462.1,317.2z M606.8,730.8c0.1-0.6,0.4-1.1,0.6-1.6c15.6-44.1,12.9-82,3.3-112.3c1.6-4.4,2.3-12.9-3.3-25.2
	c-4-8.4-11.2-16.6-18.5-18.5c-5.1-7.1-10.7-13.9-16.6-20.3c-0.1-5.8-4.7-14.2-13.5-21.9c-8.2-7-16.9-10.4-22.9-10.1
	c-7-5.3-14.4-10.2-21.9-15.2c-1.8-5.5-8-12.5-16.9-17.9c-6.1-3.6-17.2-7.8-24.2-6.4c-7.4-4-15.1-8.1-22.7-12.1
	c-2.1-5.5-8.7-11.9-18.2-16.8c-9.5-4.8-18.9-6.5-24.6-4.8l-22.5-11.2c-2-5.5-9-12.2-18.3-17.1c-9.4-4.8-18.8-6.7-24.4-5.1
	c-7.4-3.8-14.6-8-21.7-12.1c-1.4-5-6.4-11.5-16.6-18.2c-2.2-1.4-4.4-2.7-6.5-3.7c-6.4-3.1-12.4-4.5-16.6-4c-3.4-2.6-6.8-5.1-10-7.7
	c-3.2-2.6-6.4-5.2-9.3-7.9c-0.1-0.5-0.1-1.2-0.3-2c-0.1-0.5-0.3-1.1-0.5-1.8c-1.2-3.7-3.9-9.4-10.7-17.1c0,0-0.1-0.1-0.2-0.2
	c-0.3-0.4-1.1-1.2-2.1-2.3c-0.3-0.3-0.6-0.6-1-1c-1.2-1.2-2.8-2.6-4.5-4.1c-0.7-0.6-1.5-1.2-2.3-1.8c-1.3-1-2.7-1.9-4-2.7
	c-0.3-0.2-0.6-0.3-0.8-0.5c-1.4-0.7-2.8-1.3-4.2-1.7c-0.1-0.2-0.2-0.3-0.3-0.5c-4.3-6.7-7.9-13.7-10.8-21.1c0,0,0-0.1,0-0.1
	c0,0,0,0,0-0.1c1.2-2.9,1.5-6.6,1.5-10.3c0-4.8-0.7-9.6-1.2-12.6c0-0.3-2.6-15.2-8.4-21.6c0-1.1,0-2.3,0-3.4
	c0.2-35.1,12.7-72.4,37.8-104.7c-66.1,44.3-95.8,120.4-59.7,191.7C257.3,470,512.4,493.9,551.5,629
	c23.7,81.8-38.5,195.1-167.7,222.3c0,0,0,0,0,0c0,0,0,0,0,0c0,0-0.1,0-0.1,0c-52.3-84.7-159.2-134.5-276.5-149.7
	c72.8-104.2,255.3-94.1,310.9,50.5c23-13.6,47.4-42.4,47.3-76.5c-0.1-19.2-7.8-40-27.8-60.8c-70.8-73.5-323.8-121.1-329.8-292.1
	c0-1.3-0.1-2.6-0.1-3.9c-0.4-32,8.1-60.6,22.3-86.1l1.7-3l1.8-3l1.8-2.9l1.9-2.9l1.9-2.9l2-2.9l2-2.8l2.1-2.8l3.5-4.6l2.2-2.7
	l2.2-2.7l2.2-2.6l2.2-2.5l2.2-2.5l2.3-2.5l2.3-2.4l2.3-2.3c0.7-0.7,1.5-1.5,2.2-2.2c0,0,0.1-0.1,0.1-0.1
	c70-69.9,179.5-105.7,214.9-112.1C435.9,154.9,543,204.8,659.9,220c0,0.1-0.1,0.1-0.2,0.2c0.1-0.1,0.3-0.1,0.4-0.2
	c-10.9,15.5-24.2,28.5-39.1,38.9c-24.2,16.9-52.9,26.9-82.5,29.8c-134.2,5.1-153.2-137-217.5-137c-11.1,0-23.2,5.7-32.1,15.4
	c15.1,2.8,22.9,12.7,22.9,25.2c0,14.6-12.5,27.3-12.5,53.2c0,22.6,9,39.8,30.6,61.7c70.8,73.5,323.8,121.1,329.8,292
	C661.5,651.5,639.5,695.3,606.8,730.8z M427,325c-63.7-9-93.5-64.5-79.2-115.3C379.6,232.8,398.1,291.8,427,325z"/>
<path class="st2" d="M329.9,307c-21.6-21.9-30.6-39.1-30.6-61.7c0-25.9,12.5-38.5,12.5-53.2c0-12.5-7.8-22.3-22.9-25.2
	c9-9.7,21-15.4,32.1-15.4c64.2,0,83.3,142.1,217.5,137c47.9-4.5,93.1-27.9,121.4-68.7c-117-15.2-224-65.1-276.3-149.7
	c-54.2,9.8-281.6,88.4-275.9,252.3c6.1,171,259,218.6,329.8,292.1C493.2,672.5,454,731,418,752.1
	c-55.6-144.6-238.1-154.6-310.9-50.5c117.3,15.2,224.2,65,276.5,149.7C513,824.2,575.2,710.9,551.5,629
	C512.4,493.9,257.3,470,189.6,343.2c-36.1-71.4-6.4-147.4,59.7-191.7c-25.9,33.4-38.4,71.9-37.8,108c5.8,6.4,8.4,21.3,8.4,21.6
	c0.9,5.3,2.4,16.3-0.3,23c3,7.7,6.7,14.9,11.1,21.7c8.8,2.3,18.8,13.8,19,14.1c9.8,11.2,11.2,18.2,11.5,20.9
	c6,5.4,12.5,10.5,19.3,15.6c5.7-0.7,14.4,2,23.2,7.7c10.2,6.7,15.2,13.2,16.6,18.2c7.1,4.1,14.4,8.2,21.7,12.1
	c5.7-1.6,15.1,0.3,24.4,5.1c9.4,4.8,16.3,11.5,18.3,17.1l22.5,11.2c5.7-1.7,15.1,0,24.6,4.8c9.5,4.8,16.1,11.2,18.2,16.8
	c7.7,4,15.4,8.1,22.7,12.1c7-1.4,18.1,2.8,24.2,6.4c9,5.4,15.1,12.4,16.9,17.9c7.5,5,14.9,9.9,21.9,15.2c6-0.3,14.6,3.1,22.9,10.1
	c8.8,7.7,13.4,16.1,13.5,21.9c6,6.4,11.5,13.2,16.6,20.3c7.2,1.8,14.5,10.1,18.5,18.5c5.5,12.2,4.8,20.8,3.3,25.2
	c9.7,30.3,12.4,68.2-3.3,112.3c-0.1,0.4-0.4,1-0.6,1.6c32.7-35.5,54.7-79.3,52.9-131.9C653.7,428.1,400.7,380.4,329.9,307z"/>
<path class="st3" d="M404.1,801.9c-5.7,16.9-12.5,33.5-20.3,49.5c-52.2-84.7-159.2-134.5-276.5-149.7
	C228.4,641,353.8,704.9,404.1,801.9z M321.1,151.5c64.2,0,83.3,142.1,217.5,137c47.9-4.5,93.1-27.7,121.7-68.5
	c-121.1,60.7-246.5-3.3-296.9-100.2c5.7-16.9,12.5-33.4,20.3-49.5c-51.2,9.4-281.6,87-275.9,252.4c6,171,259,218.6,329.8,292.1
	c55.7,57.9,16.5,116.3-19.5,137.4c-3.7,16.8-8.4,33.4-13.9,49.7c26.3-4.5,106.2-46.9,106.7-128.2c0.7-112.1-144.3-141.9-254.1-209.9
	c-90.4-56-108-111.6-112.6-146.8c-10.7-82.9,47.8-158.5,132.6-194.2c-10.2,8.5-19.5,18.1-27.4,28.7c-25.9,33.4-38.4,71.9-37.8,108
	c5.8,6.4,8.4,21.3,8.4,21.6c0.9,5.3,2.4,16.3-0.3,23c3,7.5,6.7,14.8,11.1,21.6c8.8,2.3,18.8,13.8,19,14.1
	c9.8,11.2,11.2,18.2,11.5,20.9c6,5.4,12.5,10.5,19.3,15.6c5.7-0.7,14.4,2,23.2,7.7c10.2,6.7,15.2,13.2,16.6,18.2
	c7.1,4.1,14.4,8.2,21.7,12.1c5.7-1.6,15.1,0.3,24.4,5.1c9.4,4.8,16.3,11.5,18.3,17.1l22.5,11.2c5.7-1.7,15.1,0,24.6,4.8
	c9.5,4.8,16.1,11.2,18.2,16.8c7.7,4,15.4,8.1,22.7,12.1c7-1.4,18.1,2.8,24.2,6.4c9,5.4,15.1,12.4,16.9,17.9
	c7.5,5,14.9,9.9,21.9,15.2c6-0.3,14.6,3.1,22.9,10.1c8.8,7.7,13.4,16.1,13.5,21.9c6,6.4,11.5,13.2,16.6,20.3
	c7.2,1.8,14.5,10.1,18.5,18.5c5.5,12.2,4.8,20.8,3.3,25.2c9.7,30.3,12.4,68.2-3.3,112.3c41.8-70.6,37.7-140.9-9-200.3
	c-97.5-124.1-342.7-138.9-341.8-281c0.3-33.8,14.4-60.7,32.4-81.2C297.9,157.2,310,151.5,321.1,151.5z"/>
<path class="st4" d="M427,325c-28.9-33.3-47.3-92.2-79.2-115.3C333.5,260.5,363.3,316.1,427,325z"/>
</svg>
