<svg width="500" height="500" viewBox="0 0 500 500" xmlns="http://www.w3.org/2000/svg"><title>toronto-maple-leafs</title><g fill="none" fill-rule="evenodd"><path d="M0 0h500v500H0z"/><g fill-rule="nonzero"><path d="M343.424 437.3894v8.0311h-2.0085v-8.0311h-2.325v-1.9949h6.6584v1.9949h-2.325zm10.8831 8.0311v-5.9174l-1.6913 3.6868h-1.774l-1.6914-3.6868v5.918h-2.0077v-10.0273h2.0077l2.5784 5.3543 2.5783-5.3543h2.0078v10.026h-2.0078v.0007z" fill="#00205B"/><path d="M442.2849 203.5505a.6928.6928 0 0 0-.354-.989c-5.793-2.1735-11.256-3.6773-16.7856-4.4638a.652.652 0 0 1-.4958-.9414c4.5318-9.0867 7.464-19.5263 9.6504-30.8381.0937-.487-.3498-.917-.8293-.792-10.1884 2.6463-21.8506 7.4368-31.5527 12.0718a.635.635 0 0 1-.8979-.4347c-1.4264-6.2828-3.1203-13.3711-6.6-19.5127a.686.686 0 0 0-.9937-.2105c-10.2658 7.428-19.4394 15.595-27.429 24.5634a.6582.6582 0 0 1-1.0603-.1033c-2.0595-3.3988-4.7424-6.4376-8.2811-8.984a.6548.6548 0 0 0-.8898.1188c-13.181 16.3014-29.7697 34.8184-51.1775 50.1511-.4442.318-1.0527-.1154-.8938-.6384 4.8598-15.8966 12.1778-31.0453 19.3103-44.9558a.6514.6514 0 0 0-.4293-.9353c-3.0021-.6799-7.0055-1.0616-10.7996-1.2762a.6405.6405 0 0 1-.4958-1.0026c9.0234-13.3793 15.9216-29.6521 20.2951-44.284a.635.635 0 0 0-.6344-.817c-7.542.3368-16.6498 2.0335-24.1905 4.6492a.6242.6242 0 0 1-.8246-.7043c2.2041-12.6424 1.1826-26.8205-1.2273-39.9587a.6548.6548 0 0 0-.8721-.5c-5.3224 2.0051-11.4198 5.0752-16.9677 8.4265a.6419.6419 0 0 1-.9781-.5977c.8348-11.8864-.4816-25.0233-3.0293-35.6063a.6242.6242 0 0 0-.8103-.4469c-3.8737 1.347-8.4285 3.7324-12.7749 6.3263a.6534.6534 0 0 1-.9577-.3518c-4.091-11.9747-10.6556-23.6214-17.7304-35.1906a.6792.6792 0 0 0-1.156 0c-7.0755 11.5692-13.6395 23.2159-17.7305 35.1906a.6534.6534 0 0 1-.9577.3518c-4.347-2.5946-8.902-4.9787-12.7748-6.3263a.6249.6249 0 0 0-.8104.447c-2.5484 10.5822-3.864 23.7198-3.0293 35.6055a.6419.6419 0 0 1-.978.5977c-5.548-3.3506-11.6454-6.4207-16.9684-8.4257a.6548.6548 0 0 0-.8715.4999c-2.4099 13.1382-3.432 27.3163-1.2273 39.9587a.6249.6249 0 0 1-.8246.7043c-7.5407-2.615-16.6484-4.313-24.1905-4.6493a.635.635 0 0 0-.6344.8171c4.3735 14.6319 11.2717 30.9047 20.2952 44.284a.6405.6405 0 0 1-.4959 1.0026c-3.7941.2146-7.7975.5963-10.7996 1.277a.652.652 0 0 0-.43.9345c7.1455 13.9336 14.4743 29.1081 19.3341 45.0339.1542.5047-.4245.9298-.8572.6283-18.9652-13.2598-37.1643-32.7128-51.2372-50.2164a.654.654 0 0 0-.8904-.1209c-3.5388 2.5464-6.221 5.5853-8.2804 8.9834a.6575.6575 0 0 1-1.0596.1033c-7.9904-8.9685-17.164-17.1355-27.4305-24.5634a.6853.6853 0 0 0-.9923.2105c-3.4803 6.1416-5.1743 13.2306-6.6014 19.5134a.635.635 0 0 1-.8972.434c-9.702-4.635-21.3643-9.4255-31.5527-12.0718-.4802-.1243-.9237.3057-.8293.792 2.1871 11.3118 5.1186 21.7514 9.651 30.838a.652.652 0 0 1-.4971.9422c-5.5289.7858-10.9926 2.289-16.785 4.4625a.6928.6928 0 0 0-.3538.9896c6.8112 11.7139 14.6712 21.3772 23.7157 28.9193a.6507.6507 0 0 1-.0876 1.0643 53.9921 53.9921 0 0 0-9.9995 7.6956.6813.6813 0 0 0 .0006.97 241.4251 241.4251 0 0 0 37.5319 30.1846.6792.6792 0 0 1 .0414 1.1085c-5.0031 3.871-9.41 7.8885-13.1905 12.408a.682.682 0 0 0 .0727.9442c9.8372 8.7056 21.1 15.7586 34.1751 21.096a.6724.6724 0 0 1 .146 1.1642c-4.6506 3.496-8.4305 7.3627-11.9088 11.5481a.6785.6785 0 0 0 .2065 1.0338c9.344 4.8021 20.685 7.9062 32.4485 10.0348.5346.0972.5774.8355.0578.9971-15.0217 4.6486-28.8195 10.655-42.029 18.0103a.6799.6799 0 0 0-.074 1.1357c9.6823 7.1916 19.5561 13.4602 31.0459 17.9396a.667.667 0 0 1 .182 1.1425c-15.7023 12.7986-28.5423 27.5316-39.757 43.5586-.3355.4795.066 1.1356.6473 1.0616 16.0025-2.0356 30.8945-4.5359 43.7264-8.0529a.6412.6412 0 0 1 .7458.9115c-2.7488 5.4855-5.2273 11.324-7.4891 17.4493-.1746.4727.2173.97.718.9156 14.4293-1.5636 27.5438-3.3955 38.0072-5.7693.5855-.1332 1.023.51.6935 1.012-4.4265 6.7427-7.5632 14.0402-10.083 22.0564-.1536.4877.2784.9693.7797.8735 25.2956-4.8313 48.3152-12.0691 68.736-21.8696.5515-.265 1.1825.1148 1.224.7254 1.23 18.138 8.1051 30.7511 17.5171 40.8858.3491.3756.9394.394 1.3157.0469l13.215-12.1989c.4007-.3701.438-.9869.0794-1.3971-2.6136-2.9886-14.6413-16.6383-12.5133-27.0161.2533-1.2362 1.6254-1.8971 2.7753-1.3768 15.2363 6.8927 46.8141 17.4193 71.6091 22.2058.489.0951.9014-.377.752-.853-2.5213-8.0265-5.66-15.3322-10.0913-22.0816-.3294-.5026.108-1.1459.6935-1.012 10.4634 2.3731 23.5779 4.205 38.0073 5.7686.5013.0543.8925-.4429.718-.9163-2.2619-6.1245-4.7404-11.9631-7.4885-17.4486a.6412.6412 0 0 1 .7451-.9115c12.8319 3.517 27.7232 6.018 43.7264 8.0529.5807.074.9828-.5821.6466-1.0623-11.214-16.0256-24.054-30.7593-39.7563-43.5586a.667.667 0 0 1 .182-1.1418c11.4898-4.4794 21.363-10.748 31.046-17.9396a.6792.6792 0 0 0-.074-1.1357c-13.209-7.3553-27.0073-13.3617-42.029-18.0103-.5197-.161-.4769-.9.0584-.997 11.7628-2.1287 23.1037-5.2335 32.4478-10.0349a.6779.6779 0 0 0 .2065-1.0338c-3.4783-4.186-7.2582-8.0522-11.9095-11.5481a.6724.6724 0 0 1 .1467-1.1642c13.075-5.3374 24.338-12.3904 34.1751-21.0967.2738-.2411.3064-.6636.072-.9434-3.7799-4.5196-8.1867-8.5379-13.1905-12.408a.6792.6792 0 0 1 .0414-1.1086 241.4299 241.4299 0 0 0 37.5326-30.1847c.269-.2649.2717-.7063 0-.9692a53.9929 53.9929 0 0 0-9.9989-7.6956.6507.6507 0 0 1-.0883-1.065c9.046-7.5421 16.9059-17.2054 23.7165-28.9193z" stroke="#FFF" stroke-width="6" fill="#00205B"/><path d="M247.4775 204.1197a.4014.4014 0 0 1 .1875.3348c.0903 5.031.2146 9.6674.3783 14.1754a.3177.3177 0 0 0 .3159.3057l3.5863.0156h.0027a.324.324 0 0 0 .3226-.3383c-.131-3.1651-.254-6.3663-.3634-9.5138a.5278.5278 0 0 1 .2099-.4375c17.003-12.8774 30.4346-27.9092 36.8506-41.2451l-.1868-.1005c-7.8858 13.1925-20.2504 25.856-36.7507 37.6391-.0979.0652-.2615.0122-.2656-.1324-.6358-20.1947-.6317-36.8431.0136-50.9003.055-1.895.1039-3.8811.1514-6.0737a.6507.6507 0 0 1 .3315-.5528c7.2636-4.0795 13.9017-9.3923 20.2938-16.2423l-.148-.1522c-7.0368 6.1592-13.624 10.71-20.1404 13.9126a.1943.1943 0 0 1-.2207-.038.1888.1888 0 0 1-.0544-.1373c.4368-24.9166-.146-53.9955-1.355-67.6404l-.212.0102a1119.1206 1119.1206 0 0 1-.504 44.1345.1304.1304 0 0 1-.133.125s-.0612-.0068-.0924-.0407c-5.9908-6.3277-11.498-13.3828-16.368-20.9683l-.1833.106c4.0312 7.7512 9.3719 15.5888 16.3278 23.9616.2174.2615.3315.593.3193.9332a1077.5301 1077.5301 0 0 1-1.3429 28.2503c-.1548 3.1393-.292 6.4594-.4326 10.4505-.0048.1358-.157.1881-.2466.1263-7.6616-5.4405-14.7106-12.9147-20.3855-21.6149l-.1834.108c5.033 9.4528 11.8443 17.4968 20.2476 23.908.2955.2255.4646.5794.4538.9475a763.1411 763.1411 0 0 0-.2989 32.9396.0965.0965 0 0 1-.0272.0686.1019.1019 0 0 1-.1195.0163c-15.0767-9.2028-27.5629-21.1306-37.1114-35.4534l-.18.1107c8.582 15.186 22.1827 29.4016 37.3131 39.0024zm-108.7198 39.8357a.328.328 0 0 0 .1412-.0312l2.4507-1.158a.2792.2792 0 0 0 .1562-.2039.2785.2785 0 0 0-.0727-.2458 349.1595 349.1595 0 0 0-2.706-2.791 1.0698 1.0698 0 0 1-.3043-.7335c-.1664-9.5132-3.3411-17.9499-9.4358-25.077l-.1698.1284c4.6031 6.9308 6.8357 14.299 6.8242 22.5244 0 .0177-.0177.0231-.0353.0157-5.8325-5.8122-12.1907-11.7594-18.898-17.6795a.8857.8857 0 0 1-.2942-.737c.5903-7.0143-.6004-13.6381-3.5387-19.6893l-.1956.0815c2.0505 5.8787 2.5532 11.7838 1.5377 18.0497l-.1032.0373c-7.4192-6.8275-15.6113-14.9368-25.041-24.789l-.1582.142c7.9286 9.4508 17.2923 19.4218 28.6279 30.4829a207.8763 207.8763 0 0 1 5.3903 5.2232 44.9898 44.9898 0 0 1-3.3458.123c-7.7873.0006-15.6663-1.9467-24.0853-5.9541l-.1012.1861c8.9005 5.4406 18.2745 8.0855 28.6585 8.0855.349 0 .6996-.0034 1.0623-.0095.161 0 .3117.0625.4218.1738 3.7629 3.8275 8.0046 8.3219 12.967 13.7367a.3339.3339 0 0 0 .2473.1086zm245.5867-24.8507c8.6058-8.7009 16.7605-17.543 24.2374-26.2778l-.1562-.144c-8.8585 8.9026-17.8833 17.7046-27.5887 26.9088a.087.087 0 0 1-.0611.0238c-.0367 0-.0815-.0231-.0883-.0734-.919-6.1823-.7153-12.929.5902-19.5134l-.2038-.057c-2.314 6.3894-3.1502 13.323-2.5559 21.1985.0224.2962-.0971.591-.3179.7893-7.3607 6.5687-14.3044 13.2163-20.6382 19.7586a.2744.2744 0 0 0 .0727.4354l2.4955 1.2857a.3865.3865 0 0 0 .4605-.0828 452.6786 452.6786 0 0 1 7.9238-8.4584 1.228 1.228 0 0 1 .8667-.3722c10.4417-.1236 19.4068-2.562 27.406-7.4538l-.0985-.1882c-7.7853 3.437-14.7493 5.0378-21.9158 5.0378a49.2982 49.2982 0 0 1-3.0932-.0985.0903.0903 0 0 1-.0788-.059.0835.0835 0 0 1 .017-.0917 477.9833 477.9833 0 0 1 12.7266-12.5677zm-125.155 175.239c-7.3812 0-14.3887 2.024-17.7841 7.0129-.0394.0584-.1107.0788-.1698.04-2.2245-1.4508-9.5465-5.8827-18.0769-5.8827-4.5902 0-9.5947 2.2279-14.6481 5.0874a.3179.3179 0 0 1-.2004.038c-13.4364-1.98-26.3172.6229-38.9202 5.5208 13.1675-3.333 25.579-5.459 35.4487-3.53.0598.0123.0727.0917.0204.123-5.8536 3.5577-11.6535 7.4504-16.8312 9.2068 10.6828-1.2382 24.6178-13.3807 35.425-13.3807 7.2044 0 14.4606 4.4931 16.3746 5.7687.0612.0407.0815.1114.0598.182-.5264 1.696-.7336 3.6284-.5481 5.8237 3.5204-9.7428 10.661-11.9897 20.4446-11.9897 7.5237 0 15.0604 2.6789 23.8584 4.6812.083.0184.16.0572.2241.1128 5.3754 4.6771 15.25 9.3536 19.9624 10.1435l2.0227.3396-1.91-.7471c-4.0345-1.5758-11.184-5.1336-14.773-8.6262-.0442-.042-.0041-.114.0563-.1039 3.663.6188 7.5584 1.029 11.7621 1.029 15.6588 0 22.7078-2.7956 27.1377-4.616-4.7084.9985-9.1899 2.4262-24.9146 2.4262-14.3316 0-32.3432-8.6594-44.0204-8.6594zM149.9879 264.2743a434.5357 434.5357 0 0 1 7.9782-3.932l-3.1068-5.9976a431.627 431.627 0 0 0-23.044 11.93l3.1054 5.9981a440.898 440.898 0 0 1 7.8152-4.2444l.4747-.2513 15.5332 30.0033a434.0825 434.0825 0 0 1 6.2991-3.261l-15.5331-30.0033.4788-.2425-.0007.0007zm31.446 22.521c.8735 0 1.743-.1494 2.5838-.4456 3.1235-1.101 6.26-2.1649 9.4086-3.1916 1.9765-.6446 3.5673-2.0037 4.4808-3.8268.8966-1.7918 1.0324-3.8349.381-5.755l-8.08-23.8238c-1.069-3.1543-4.1358-5.3563-7.4578-5.3563a7.587 7.587 0 0 0-2.3549.3749 422.116 422.116 0 0 0-9.3855 3.1828c-4.0027 1.4087-6.1382 5.8604-4.7593 9.9228l8.08 23.8237c1.0303 3.0458 3.888 5.0955 7.1033 5.0949zm-5.7448-33.3193c1.448-.4999 2.8975-.9917 4.351-1.476 1.6082-.5297 3.3429.335 3.888 1.9379l6.7134 19.7987a3.0178 3.0178 0 0 1-.1549 2.327 3.0382 3.0382 0 0 1-1.77 1.5364 379.1148 379.1148 0 0 0-4.3416 1.4725 3.0592 3.0592 0 0 1-.9985.1678h-.0014a3.0396 3.0396 0 0 1-2.8792-2.0635l-6.7134-19.7987c-.544-1.6016.311-3.352 1.9066-3.902zm80.1422 21.028c4.347 0 7.6806-3.301 7.6806-7.5128v-25.157c.0007-4.2894-3.4504-7.8193-7.6935-7.8689a415.562 415.562 0 0 0-9.9099 0c-4.2438.0476-7.695 3.5782-7.695 7.8688v25.157c0 4.2133 3.333 7.5137 7.587 7.5137.8164-.0048 4.5963-.0639 10.0308-.0007zM245.507 243.781c-.0014-1.6913 1.372-3.0749 3.0585-3.0837a431.8472 431.8472 0 0 1 4.5957 0c1.6858.0102 3.0578 1.3938 3.0578 3.0837v20.9065c-.0052 1.6803-1.3686 3.0398-3.049 3.0402a421.8014 421.8014 0 0 0-4.5984 0c-1.6967 0-3.0646-1.364-3.0646-3.0402v-20.9065zm-1.7578 126.7539h10.8655l1.6892 6.6265h7.1767l-9.5444-35.2605h-9.5085l-9.5444 35.2605h7.1773l1.6886-6.6272v.0007zm5.433-21.3188l3.744 14.6916h-7.4885l3.7446-14.6916zm18.5374-35.5628v-11.0265c0-3.8484-3.121-6.9593-6.9695-6.9593h-15.2268v35.2599h6.9118v-10.3045h8.315c3.8485 0 6.9689-3.1204 6.9689-6.9689l.0006-.0007zm-6.9043-1.7999c0 1.1829-.9587 2.1419-2.1416 2.1423h-6.2386v-11.7017h6.2386c1.1829.0004 2.1416.9594 2.1416 2.1423v7.4171zm-86.2634 30.0482v35.2598h20.6396v-6.6272h-13.6585v-28.6326h-6.981zm26.2962-46.234h-5.4936l-7.6548 17.6733-7.6535-17.6734h-5.495v35.2599h6.9125v-16.2688l6.236 14.115 6.2366-14.1143v16.2674h6.9118v-35.2592zm14.2127-17.8772l-1.9378-12.0033.519-.0903a375.9243 375.9243 0 0 1 2.9491-.4986l.3274-.0543.1922.2703a5008.3858 5008.3858 0 0 1 7.665 10.8051 406.6893 406.6893 0 0 1 6.8935-.9686 4518.2231 4518.2231 0 0 0-7.5469-10.727l-.3803-.5386.6058-.2574c3.183-1.3438 5.036-4.6885 4.487-8.0997l-2.0737-12.8441c-.61-3.769-3.9259-6.6123-7.7146-6.6123-.3783 0-.7607.0292-1.137.0863a403.7792 403.7792 0 0 0-16.2885 2.7902l6.4628 40.0212a416.8373 416.8373 0 0 1 6.977-1.279zm-4.8673-33.443a399.0373 399.0373 0 0 1 6.38-1.0514c1.6695-.2622 3.2446.9217 3.5088 2.5532l1.3951 8.6404a3.013 3.013 0 0 1-.5393 2.2686 3.0293 3.0293 0 0 1-1.999 1.2199c-2.1239.3323-4.2452.6817-6.3636 1.048l-.5298.091-2.3704-14.68.5182-.0897zm19.277 86.58h7.1054l-8.6832-35.2599h-9.414l-8.6832 35.2599h7.1053l1.491-6.6265h9.5878l1.491 6.6265zm-9.5892-13.253l3.3044-14.6917 3.3044 14.6916h-6.6088zm74.1154 30.8537v-6.6272h-22.1134v35.2605h6.9817V362.844h10.786v-6.6259h-10.786v-7.6901h15.1317zm-16.5805-113.2333l-6.765 39.9709c2.3229.3213 4.6784.667 7.0163 1.0304l3.8845-22.9612.6786 1.98a4006.8804 4006.8804 0 0 1 7.8396 23.103 419.024 419.024 0 0 1 5.5248 1.0685l6.7637-39.9703a417.7756 417.7756 0 0 0-6.9634-1.3346l-3.8872 22.9713-.6752-2.0058a3928.9355 3928.9355 0 0 0-7.8389-23.042 428.6618 428.6618 0 0 0-5.5778-.8102zm32.7956 141.8666h9.9242c3.8872 0 7.0388-3.1197 7.0388-6.9688v-5.048c0-2.6157-1.0141-5.0113-3.3663-6.2034 0 0-12.353-5.4962-12.5208-5.5873-.5889-.3172-1.1594-1.103-1.1594-1.9004v-.7784c0-1.186.9713-2.147 2.1688-2.147h5.7299c1.196 0 2.166.9597 2.166 2.1436v1.4725h6.9818v-3.2745c0-3.8485-3.1516-6.9688-7.0388-6.9688h-9.9242c-3.8878 0-7.0388 3.1203-7.0388 6.9688v3.6332c0 2.615 1.0141 5.0113 3.3663 6.2026 0 0 12.353 5.497 12.5208 5.588.5882.3172 1.1594 1.103 1.1594 1.9005v2.1939c0 1.1852-.9713 2.1463-2.1687 2.1463h-5.7307c-1.1954 0-2.1653-.9597-2.1653-2.1436v-1.4943h-6.9824v3.297c0 3.8484 3.1516 6.9681 7.0394 6.9681zm16.9623-52.8612h-13.4486v-7.6888h9.1464v-6.6265h-9.1471v-7.6902h13.4486v-6.6265h-20.3604v35.2598h20.3604l.0007-6.6278zm-29.3078 0h-12.7558v-28.6327h-6.9125v35.2599h19.6683V324.3zm18.0089-38.6016l10.7637-32.0254.508.1766c2.8011.971 5.5922 1.9706 8.3728 2.9987l2.1518-6.4023a431.737 431.737 0 0 0-24.5995-8.2675l-2.151 6.403a432.1805 432.1805 0 0 1 8.4834 2.666l.5115.1657-10.7637 32.0254a433.2336 433.2336 0 0 1 6.723 2.2598zm-89.394 62.8295v-6.6272h-22.114v35.2605h22.114v-6.6272H211.349v-7.6901h10.786v-6.6259h-10.786v-7.6901h15.1324zm136.2156-86.1744a416.1954 416.1954 0 0 0-8.8068-4.5488 7.5495 7.5495 0 0 0-3.4192-.809c-2.9295 0-5.6879 1.675-7.0273 4.2676l-11.5475 22.3498c-.9305 1.802-1.1023 3.843-.4836 5.749.631 1.9392 2.001 3.5204 3.8587 4.453a414.7933 414.7933 0 0 1 8.8258 4.5603 7.756 7.756 0 0 0 3.6223.9115c2.8093 0 5.357-1.5561 6.6517-4.061l11.5481-22.3492c1.9698-3.8105.5237-8.531-3.223-10.5232h.0008zm-4.1514 8.9046l-9.5968 18.574a3.0293 3.0293 0 0 1-2.6999 1.6437c-.489 0-.9788-.1202-1.4169-.349a421.4076 421.4076 0 0 0-4.0733-2.105 3.0395 3.0395 0 0 1-1.3258-4.1073l9.596-18.5733c.7748-1.5075 2.6225-2.1048 4.1331-1.336a422.854 422.854 0 0 1 4.0822 2.1096c1.4943.7832 2.0777 2.6422 1.3014 4.1433z" fill="#FFF"/></g></g></svg>