<svg width="500" height="500" viewBox="0 0 500 500" xmlns="http://www.w3.org/2000/svg"><title>washington-capitals</title><g fill="none" fill-rule="evenodd"><path d="M0 0h500v500H0z"/><g fill-rule="nonzero"><path d="M457.976 281.63c-3.879 0-7.028 3.145-7.028 7.027 0 3.877 3.149 7.026 7.028 7.026 3.88 0 7.024-3.149 7.024-7.026 0-3.882-3.145-7.027-7.024-7.027zm0 12.547c-3.045.002-5.517-2.465-5.519-5.51v-.01c0-3.051 2.466-5.516 5.519-5.516 3.05 0 5.519 2.465 5.519 5.516-.001 3.051-2.47 5.52-5.519 5.52zm2.887-7.148c-.001-1.316-1.067-2.382-2.384-2.381h-3.387v8.021h1.506v-3.257h1.079l1.521 3.257h1.664l-1.588-3.396a2.3858 2.3858 0 0 0 1.589-2.244zm-2.384.877h-1.88v-1.756h1.88c.484 0 .88.394.88.879-.003.484-.396.876-.88.877z" fill="#041E42"/><path d="M121.274 295.158h32.186l-10.958 26.471h26.96l10.961-26.471h79.273l-2.301 5.563c-5.26 12.697-4.544 29.005.848 37.648l30.695 49.186 23.756-34.49h38.914l21.246-26.123h-49.269l-14.866 18.285-29.59-24.6c-.66-.623-1.426-3.834-.196-6.793l13.472-32.537s2.838 13.861 20.829 13.861H420.14c5.077 0 20.535 0 26.493-14.393 5.417-13.097-2.667-20.279-2.667-20.279h8.521l9.72-23.446H409.94c-6.607 0-12.726 1.682-17.538 4.569l24.678-59.588h-26.965l-27.093 65.429s-4.832-10.411-20.687-10.411h-31.6L362.097 113h-26.963L283.77 237.04h-65.946c-17.199 0-33.097 7.248-44.297 19.406 0 0-.13-19.406-23.15-19.406H91.698c-23.457 0-47.635 14.002-55.039 31.877-5.229 12.621 2.132 26.24 18.847 26.24h22.861c9.512 0 19.621-6.33 23.979-9.412 0 .001 4.851 9.413 18.928 9.413z" fill="#FFF"/><path d="M350.891 351.566h-45.387l18.799-23.123h45.39l-18.802 23.123zm-24.37-10h19.611l2.54-3.123H329.06l-2.539 3.123zM219.464 234.115c-3.65 0-6.099-.932-7.735-2.111l-.726 1.751h-11.07l-.443-1.346-.558 1.346h-37.481c-1.229.237-2.544.359-3.934.359-1.278 0-2.389-.133-3.354-.359h-12.811l-.305-3.057h-1.08l-2.707 3.057H106.777l1.342-23.64h31.331l5.134-15.805-18.855-13.687h23.305l7.195-22.167 7.199 22.167h46.063l7.188-22.157 7.21 22.157h46.061l7.196-22.171 7.196 22.171h23.301l-18.851 13.686 7.2 22.151-5.541-4.025-8.827 21.32h-11.085l-.439-1.336-.554 1.336h-13.579l.028-.068c-1.284.283-2.639.428-4.051.428-5.449 0-8.087-2.236-9.34-4.112a8.4232 8.4232 0 0 1-.316-.514l-1.767 4.266h-13.892l.258-.623c-2.675.715-5.549.983-7.423.983zm-69.906-24.001h3.164l.38 3.925c2.435-2.702 6.203-4.284 10.535-4.284.904 0 1.722.067 2.463.187l-9.871-7.171-6.825 4.96.154 2.383zm56.898.091l.318.982.444-1.073h13.58l-.075.18c1.412-.354 2.89-.54 4.407-.54.425 0 .833.013 1.225.038l-9.669-7.022-10.23 7.435zm60.58-.091h10.013l.342 1.057.438-1.057h9.428l-10.111-7.345-10.11 7.345zm-33.565 0h20.688c1.188-.238 2.435-.36 3.73-.36.922 0 1.764.064 2.531.179l5.079-15.625-18.579-13.492-18.588 13.493 5.139 15.805zm-38.331 0h4.769l5.133-15.805-18.587-13.494-18.579 13.494 5.134 15.806h22.13v-.001z" fill="#FFF"/><path d="M326.682 333.443l-10.669 13.123h32.499l10.671-13.123h-32.501zM146.899 203.37l9.331-6.78 9.332 6.78-3.563-10.972 9.329-6.775h-11.533l-3.564-10.976-3.563 10.976H141.13l9.334 6.775-3.565 10.972zm60.457 0l9.329-6.78 9.336 6.78-3.566-10.972 9.334-6.775h-11.533l-3.571-10.976-3.561 10.976h-11.537l9.333 6.775-3.564 10.972zm73.351-17.747l-3.563-10.976-3.563 10.976h-11.533l9.33 6.775-3.566 10.972 9.332-6.78 9.334 6.78-3.566-10.972 9.332-6.775h-11.537zm-156.773 32.254h.035l-.709 10.877h3.759l10.486-13.64h-3.058l-7.951 10.657h-.04l.732-10.657h-3.855l-7.968 10.657h-.035l.804-10.657h-3.289l-.774 13.64h3.686l8.177-10.877zm21.64 7.821l.305 3.057h3.625l-1.321-13.641h-3.851l-12.608 13.641h3.286l2.707-3.057h7.857zm-.549-8.163l.381 5.93h-5.673l5.292-5.93zm7.988 6.946c-1.21 2.928.557 4.633 4.504 4.633 4.631 0 7.743-1.663 8.908-4.481 2.487-6.007-8.811-2.461-7.348-5.991.516-1.246 2.176-1.87 3.444-1.87 2.116 0 3.074.645 2.455 2.419h3.06c1.05-2.761-.41-4.436-4.398-4.436-3.171 0-6.647 1.264-7.947 4.417-2.274 5.477 8.668 2.789 7.401 5.84-.408.987-1.787 2.076-4.317 2.076-2.419 0-3.205-.985-2.702-2.607h-3.06zm17.922 4.274l2.425-5.858h7.425l-2.427 5.858h3.062l5.649-13.641h-3.056l-2.306 5.557h-7.423l2.297-5.557h-3.061l-5.654 13.641h3.069zm17.698 0l5.655-13.641h-3.062l-5.652 13.641h3.059zm6.959 0l4.416-10.656h.035l3.508 10.656h4.112l5.652-13.641h-2.755l-4.336 10.467h-.043l-3.389-10.467h-4.308l-5.647 13.641h2.755zm34.763-9.245c1.32-3.189-1.11-4.756-5.225-4.756-5.372 0-9.527 3.055-11.224 7.137-2.045 4.954.471 7.223 5.557 7.223 1.979 0 5.124-.383 7.412-1.21l2.644-6.371h-7.352l-.879 2.114h4.362l-1.074 2.609c-1.71.471-2.81.624-4.002.624-4.192 0-4.533-2.475-3.479-5.006 1.469-3.549 4.736-5.004 7.607-5.004 1.514 0 3.17.734 2.476 2.64h3.177zm3.761 9.245h3.063l4.726-11.413h5.197l.926-2.228h-13.454l-.924 2.228h5.201l-4.735 11.413zm17.827.359c5.029 0 8.944-2.398 10.928-7.188 1.984-4.778.048-7.172-4.981-7.172-5.024 0-8.946 2.394-10.927 7.172-1.984 4.789-.045 7.188 4.98 7.188zm-1.807-7.188c1.328-3.213 3.884-4.951 6.832-4.951 2.966 0 4.062 1.738 2.729 4.952-1.33 3.219-3.867 4.954-6.832 4.954-2.944-.001-4.061-1.735-2.729-4.955zm26.7 3.656h-.039l-3.386-10.467h-4.313l-5.649 13.641h2.757l4.416-10.656h.037l3.5 10.656h4.123l5.647-13.641h-2.759l-4.334 10.467z" fill="#C8102E"/><path d="M87.893 253.988h17.058l4.324-10.445H91.698c-20.707 0-42.658 12.474-49.035 27.859-3.848 9.303 1.804 17.256 12.843 17.256h22.862c9.937 0 22.034-9.561 22.034-9.561l-10.686-4.505s-4.848 3.622-10.103 3.622H57.704c-2.745 0-3.877-2.639-2.436-6.137 4.142-9.994 18.748-18.089 32.625-18.089zm33.381 34.67h13.247c4.758 0 8.837-2.771 8.837-2.771l-1.144 2.771H155.1l10.549-25.474c4.493-10.847-2.344-19.642-15.272-19.642h-33.5l-4.325 10.445h36.276c7.745 0 5.384 5.691 5.384 5.691h-26.126c-10.38 0-18.037 4.783-20.484 10.689-4.178 10.093 1.94 18.291 13.672 18.291zm-2.357-14.495c.926-2.226 3.484-4.038 5.72-4.038h18.082c4.133 0 7.819-1.57 7.819-1.57l-2.119 5.112c-1.036 2.509-4.655 4.548-7.479 4.548h-19.655c-2.235-.001-3.295-1.815-2.368-4.052zm185.585-30.621l-4.324 10.445h40.605c7.749 0 5.386 5.691 5.386 5.691h-26.123c-10.379 0-18.038 4.783-20.478 10.689-4.187 10.092 1.93 18.289 13.668 18.289h13.241c4.761 0 8.846-2.771 8.846-2.771l-1.152 2.771h12.89l10.548-25.474c4.493-10.847-2.342-19.642-15.272-19.642h-37.835v.002zm35.88 30.125c-1.04 2.508-4.654 4.547-7.476 4.547h-19.66c-2.232 0-3.295-1.814-2.37-4.052.925-2.226 3.486-4.038 5.72-4.038h18.085c4.128 0 7.817-1.57 7.817-1.57l-2.116 5.113zm25.502 14.991l41.463-100.132h-12.884l-41.469 100.132h12.89zm-97.903-45.116h-12.887l-4.326 10.445h12.882l4.331-10.445zm-18.686 45.116l12.002-28.978h-12.891l-12.001 28.978h12.89zm140.162-34.739c-3.974 9.607 1.192 17.401 11.557 17.401h26.157c1.905 0 2.811 1.544 2.018 3.448-.789 1.904-2.97 3.445-4.87 3.445h-47.848l-4.323 10.443h47.991c8.941 0 17.035-2.045 20.481-10.377 3.979-9.613-1.19-17.402-11.552-17.402h-26.155c-1.907 0-2.814-1.543-2.022-3.445.791-1.908 2.974-3.445 4.877-3.445h42.377l4.325-10.445h-42.53c-8.938 0-17.777 3.844-20.483 10.377zm-224.335 61.206l14.969-36.148c5.715-13.801 18.305-24.988 38.223-24.988h12.781l-8.097 19.549c-1.064 2.572-4.045 4.678-6.614 4.678h-29.781l-4.328 10.443h35.646c6.438 0 12.921-2.94 16.548-11.706l13.841-33.409h-30.485c-23.917 0-42.119 14.898-49.729 33.273l-15.861 38.309h12.887v-.001z" fill="#041E42"/><path d="M263.401 303.203c-4.258 10.302-4.097 24.574.36 31.723l25.447 40.775 16.75-24.319-30.982-25.757c-3.263-2.701-4.186-9.13-2.048-14.282l79.44-191.844h-12.891l-51.364 124.043h-15.276l-4.326 10.445h15.282l-20.392 49.216z" fill="#041E42"/></g></g></svg>